<svg id="Layer_1" data-name="Layer 1" xmlns="http://www.w3.org/2000/svg" viewBox="0 0 1000 500"><defs><style>.cls-1{fill:#ef7937;}.cls-2{fill:#fff;}</style></defs><rect class="cls-1" x="0.24" width="1000" height="500"/><path class="cls-2" d="M261,194.2H280.4l36.24,91.2H297.2l-8.64-24H251.84l-8.76,24H224.72Zm22.56,53-13.44-36.72-13.32,36.72Z"/><path class="cls-2" d="M356,287a38.56,38.56,0,0,1-17.58-3.84,27.9,27.9,0,0,1-11.82-11,33,33,0,0,1-4.2-16.92,33.68,33.68,0,0,1,4.08-16.68A29.22,29.22,0,0,1,338.18,227a36.08,36.08,0,0,1,17.7-4.2,48.84,48.84,0,0,1,10.74,1.2,32.71,32.71,0,0,1,8.94,3.24l-2,14.16a37,37,0,0,0-16.08-3.84q-8.4,0-13.38,4.68t-5,12.6q0,8.16,5,12.78t13.8,4.62a43.93,43.93,0,0,0,16.68-3.72l1.68,13.68A32.5,32.5,0,0,1,367,285.7,48.42,48.42,0,0,1,356,287Z"/><path class="cls-2" d="M415.76,287.32q-11.4,0-16.92-5.82t-5.52-17.82V238.12H381.44v-13.8h11.88V207.76H410v16.56h19.08v13.8H410v22.56q0,6.36,2.16,9.12t7.32,2.76a22.48,22.48,0,0,0,10.8-2.64l1.8,13.92a25.88,25.88,0,0,1-7.14,2.52A42.77,42.77,0,0,1,415.76,287.32Z"/><path class="cls-2" d="M450.56,211.84a9.68,9.68,0,0,1-7.14-2.82,9.38,9.38,0,0,1-2.82-6.9,9.19,9.19,0,0,1,2.82-6.84,10.62,10.62,0,0,1,14.28,0,9.19,9.19,0,0,1,2.82,6.84,9.33,9.33,0,0,1-2.82,7A9.79,9.79,0,0,1,450.56,211.84Zm-8.28,12.48H459V285.4H442.28Z"/><path class="cls-2" d="M467.84,224.32H486.2l14.16,43.56L515,224.32h17.4L508.76,285.4H491.48Z"/><path class="cls-2" d="M549.56,211.84a9.68,9.68,0,0,1-7.14-2.82,9.38,9.38,0,0,1-2.82-6.9,9.19,9.19,0,0,1,2.82-6.84,10.62,10.62,0,0,1,14.28,0,9.19,9.19,0,0,1,2.82,6.84,9.33,9.33,0,0,1-2.82,7A9.79,9.79,0,0,1,549.56,211.84Zm-8.28,12.48H558V285.4H541.28Z"/><path class="cls-2" d="M600.68,287.32q-11.4,0-16.92-5.82t-5.52-17.82V238.12H566.36v-13.8h11.88V207.76h16.68v16.56H614v13.8H594.92v22.56q0,6.36,2.16,9.12t7.32,2.76a22.48,22.48,0,0,0,10.8-2.64l1.8,13.92a25.88,25.88,0,0,1-7.14,2.52A42.77,42.77,0,0,1,600.68,287.32Z"/><path class="cls-2" d="M635.48,211.84a9.68,9.68,0,0,1-7.14-2.82,9.38,9.38,0,0,1-2.82-6.9,9.19,9.19,0,0,1,2.82-6.84,10.62,10.62,0,0,1,14.28,0,9.19,9.19,0,0,1,2.82,6.84,9.33,9.33,0,0,1-2.82,7A9.79,9.79,0,0,1,635.48,211.84Zm-8.28,12.48h16.68V285.4H627.2Z"/><path class="cls-2" d="M691.76,287.32a42.56,42.56,0,0,1-18.66-3.84,28.58,28.58,0,0,1-12.42-11.22,32.9,32.9,0,0,1-4.44-17.34,35.34,35.34,0,0,1,3.84-16.62A28.81,28.81,0,0,1,671,226.66a31.24,31.24,0,0,1,16.44-4.26,30.59,30.59,0,0,1,15.18,3.66,25.62,25.62,0,0,1,10.2,10.5,33.87,33.87,0,0,1,3.66,16.2,39.68,39.68,0,0,1-.6,7.2H672.8q3.12,13.68,20.76,13.68a50.26,50.26,0,0,0,10.74-1.14,38.59,38.59,0,0,0,9.42-3.3l1.68,13.08A38,38,0,0,1,704.84,286,63.06,63.06,0,0,1,691.76,287.32Zm8.76-39c-.4-4.24-1.79-7.5-4.14-9.78a13,13,0,0,0-9.42-3.42,13.46,13.46,0,0,0-9.48,3.42q-3.72,3.42-4.8,9.78Z"/><path class="cls-2" d="M748.52,287.32a52.29,52.29,0,0,1-13.2-1.62,26.23,26.23,0,0,1-9.6-4.26l2-13.56a38.32,38.32,0,0,0,20,6.12c6.79,0,10.2-1.72,10.2-5.16a4.73,4.73,0,0,0-2.16-4.2q-2.16-1.44-9-3.36-10.8-3-15.42-7.62t-4.62-12.42a16.42,16.42,0,0,1,6.6-13.8q6.58-5,18.12-5a49.35,49.35,0,0,1,11.28,1.32A32.48,32.48,0,0,1,772,227.2l-1.92,13.2a34.16,34.16,0,0,0-8.58-3.42,37.05,37.05,0,0,0-9.3-1.26q-8.76,0-8.76,4.68a4.81,4.81,0,0,0,2.1,4.14c1.39,1,4.18,2.1,8.34,3.3q11.52,3.36,16.26,7.92t4.74,12.6a16.19,16.19,0,0,1-7,13.92Q760.88,287.32,748.52,287.32Z"/></svg>