<svg id="Layer_1" data-name="Layer 1" xmlns="http://www.w3.org/2000/svg" viewBox="0 0 1000 500"><defs><style>.cls-1{fill:#6f5e96;}.cls-2{fill:#fff;}</style></defs><rect class="cls-1" x="0.24" width="1000" height="500"/><path class="cls-2" d="M342.26,194.2H361.7l36.24,91.2H378.5l-8.64-24H333.14l-8.76,24H306Zm22.56,53-13.44-36.72-13.32,36.72Z"/><path class="cls-2" d="M437.3,287a38.56,38.56,0,0,1-17.58-3.84,27.9,27.9,0,0,1-11.82-11,33,33,0,0,1-4.2-16.92,33.68,33.68,0,0,1,4.08-16.68A29.22,29.22,0,0,1,419.48,227a36.08,36.08,0,0,1,17.7-4.2,48.84,48.84,0,0,1,10.74,1.2,32.71,32.71,0,0,1,8.94,3.24l-2,14.16a37,37,0,0,0-16.08-3.84q-8.4,0-13.38,4.68t-5,12.6q0,8.16,5,12.78t13.8,4.62a43.93,43.93,0,0,0,16.68-3.72l1.68,13.68a32.5,32.5,0,0,1-9.24,3.54A48.42,48.42,0,0,1,437.3,287Z"/><path class="cls-2" d="M497.06,287.32q-11.4,0-16.92-5.82t-5.52-17.82V238.12H462.74v-13.8h11.88V207.76H491.3v16.56h19.08v13.8H491.3v22.56q0,6.36,2.16,9.12t7.32,2.76a22.48,22.48,0,0,0,10.8-2.64l1.8,13.92a25.88,25.88,0,0,1-7.14,2.52A42.77,42.77,0,0,1,497.06,287.32Z"/><path class="cls-2" d="M531.86,211.84a9.68,9.68,0,0,1-7.14-2.82,9.38,9.38,0,0,1-2.82-6.9,9.19,9.19,0,0,1,2.82-6.84,10.62,10.62,0,0,1,14.28,0,9.19,9.19,0,0,1,2.82,6.84,9.33,9.33,0,0,1-2.82,7A9.79,9.79,0,0,1,531.86,211.84Zm-8.28,12.48h16.68V285.4H523.58Z"/><path class="cls-2" d="M556.1,224.32h16.08l.12,7.56a17.84,17.84,0,0,1,7.38-7,23.78,23.78,0,0,1,11.1-2.46q10.8,0,16.5,6.66t5.7,19.26V285.4H596.3v-34q0-14.28-10.92-14.28-6,0-9.3,4t-3.3,11.34V285.4H556.1Z"/><path class="cls-2" d="M655.46,315.88a64.4,64.4,0,0,1-13-1.38A37.22,37.22,0,0,1,631.94,311l1.8-15.12a34.2,34.2,0,0,0,9.24,3.72A42.25,42.25,0,0,0,653.66,301q10.2,0,15.06-4.62t4.86-14.46V277.6a19.92,19.92,0,0,1-8.28,7.26,27.59,27.59,0,0,1-12,2.46,27,27,0,0,1-14.46-4A27.48,27.48,0,0,1,628.7,272,37.23,37.23,0,0,1,625,255a36.09,36.09,0,0,1,3.66-16.26A30.16,30.16,0,0,1,639,226.9a26.56,26.56,0,0,1,15.12-4.5A24.76,24.76,0,0,1,665.48,225a20.32,20.32,0,0,1,8.1,7.26l.24-7.92h16v56.76q0,17.16-8.64,26T655.46,315.88Zm2.4-43.44a15.17,15.17,0,0,0,11.64-4.92q4.56-4.92,4.56-12.72t-4.5-12.6a16.37,16.37,0,0,0-23.4,0q-4.5,4.92-4.5,12.6t4.56,12.72A15.17,15.17,0,0,0,657.86,272.44Z"/></svg>