<svg id="Layer_1" data-name="Layer 1" xmlns="http://www.w3.org/2000/svg" viewBox="0 0 1000 500"><defs><style>.cls-1{fill:#dd0613;}.cls-2{fill:#fff;}</style></defs><rect class="cls-1" x="0.24" width="1000" height="500"/><path class="cls-2" d="M106.16,194.2H166.4v15.36H123.92V231.4h37.56v15.24H123.92V270h44.16V285.4H106.16Z"/><path class="cls-2" d="M182.84,224.32h16.08l.12,7.56a17.84,17.84,0,0,1,7.38-7,23.78,23.78,0,0,1,11.1-2.46q10.8,0,16.5,6.66t5.7,19.26V285.4H223v-34q0-14.28-10.92-14.28-6,0-9.3,4t-3.3,11.34V285.4H182.84Z"/><path class="cls-2" d="M248.24,224.32H266.6l14.16,43.56,14.64-43.56h17.4L289.16,285.4H271.88Z"/><path class="cls-2" d="M330,211.84a9.68,9.68,0,0,1-7.14-2.82,9.38,9.38,0,0,1-2.82-6.9,9.19,9.19,0,0,1,2.82-6.84,10.62,10.62,0,0,1,14.28,0,9.19,9.19,0,0,1,2.82,6.84,9.33,9.33,0,0,1-2.82,7A9.79,9.79,0,0,1,330,211.84Zm-8.28,12.48h16.68V285.4H321.68Z"/><path class="cls-2" d="M354.2,224.32h16.08l.12,10.08a19.8,19.8,0,0,1,6.78-8.28,17.25,17.25,0,0,1,9.9-2.88,18.59,18.59,0,0,1,7.08,1.32l-1.44,15.72a20.48,20.48,0,0,0-7.44-1.44q-6.84,0-10.62,4.92t-3.78,13.8V285.4H354.2Z"/><path class="cls-2" d="M432.08,287.32a34,34,0,0,1-16.5-4.08,30.87,30.87,0,0,1-11.94-11.52,34,34,0,0,1-.3-33.06A31.3,31.3,0,0,1,415,226.84a33,33,0,0,1,17-4.44,34.37,34.37,0,0,1,16.5,4,30.43,30.43,0,0,1,11.94,11.46,34.23,34.23,0,0,1,.3,33.18,31.3,31.3,0,0,1-11.7,11.82A33,33,0,0,1,432.08,287.32Zm0-14.88a15.17,15.17,0,0,0,11.64-4.92q4.56-4.92,4.56-12.72t-4.5-12.6a16.37,16.37,0,0,0-23.4,0q-4.5,4.92-4.5,12.6t4.56,12.72A15.17,15.17,0,0,0,432.08,272.44Z"/><path class="cls-2" d="M477.32,224.32H493.4l.12,7.56a17.84,17.84,0,0,1,7.38-7A23.78,23.78,0,0,1,512,222.4q10.8,0,16.5,6.66t5.7,19.26V285.4H517.52v-34q0-14.28-10.92-14.28-6,0-9.3,4T494,252.52V285.4H477.32Z"/><path class="cls-2" d="M549.68,224.32h16.08l.12,7.56a18,18,0,0,1,7.5-7.08,24.27,24.27,0,0,1,11.1-2.4q13.32,0,18.72,10.92a19,19,0,0,1,7.86-7.92,23.48,23.48,0,0,1,11.7-3q10.92,0,16.68,6.6t5.76,19.32V285.4H628.52v-34q0-7.32-2.64-10.8t-8.16-3.48a10.43,10.43,0,0,0-8.7,4.08q-3.18,4.08-3.18,11.28V285.4H589.16v-34q0-7.32-2.58-10.8t-8.22-3.48a10.56,10.56,0,0,0-8.82,4.08q-3.18,4.08-3.18,11.16v33H549.68Z"/><path class="cls-2" d="M692.72,287.32a42.59,42.59,0,0,1-18.66-3.84,28.64,28.64,0,0,1-12.42-11.22,33,33,0,0,1-4.44-17.34A35.34,35.34,0,0,1,661,238.3,28.88,28.88,0,0,1,672,226.66a31.26,31.26,0,0,1,16.44-4.26,30.59,30.59,0,0,1,15.18,3.66,25.62,25.62,0,0,1,10.2,10.5,33.87,33.87,0,0,1,3.66,16.2,39.68,39.68,0,0,1-.6,7.2H673.76q3.12,13.68,20.76,13.68a50.19,50.19,0,0,0,10.74-1.14,38.45,38.45,0,0,0,9.42-3.3l1.68,13.08A37.88,37.88,0,0,1,705.8,286,63.06,63.06,0,0,1,692.72,287.32Zm8.76-39q-.6-6.36-4.14-9.78a13,13,0,0,0-9.42-3.42,13.46,13.46,0,0,0-9.48,3.42q-3.72,3.42-4.8,9.78Z"/><path class="cls-2" d="M730.64,224.32h16.08l.12,7.56a17.78,17.78,0,0,1,7.38-7,23.78,23.78,0,0,1,11.1-2.46q10.8,0,16.5,6.66t5.7,19.26V285.4H770.84v-34q0-14.28-10.92-14.28-6,0-9.3,4t-3.3,11.34V285.4H730.64Z"/><path class="cls-2" d="M829.88,287.32q-11.42,0-16.92-5.82t-5.53-17.82V238.12H795.55v-13.8h11.88V207.76h16.69v16.56H843.2v13.8H824.12v22.56c0,4.24.71,7.28,2.16,9.12s3.87,2.76,7.31,2.76a22.48,22.48,0,0,0,10.8-2.64l1.81,13.92a26.08,26.08,0,0,1-7.15,2.52A42.75,42.75,0,0,1,829.88,287.32Z"/><path class="cls-2" d="M875.23,287.32A52.35,52.35,0,0,1,862,285.7a26.23,26.23,0,0,1-9.6-4.26l2-13.56a38.32,38.32,0,0,0,20,6.12q10.2,0,10.2-5.16a4.73,4.73,0,0,0-2.16-4.2q-2.16-1.44-9-3.36-10.8-3-15.42-7.62t-4.62-12.42a16.42,16.42,0,0,1,6.6-13.8q6.6-5,18.12-5a49.35,49.35,0,0,1,11.28,1.32,32.36,32.36,0,0,1,9.24,3.48l-1.92,13.2a34,34,0,0,0-8.58-3.42,37,37,0,0,0-9.29-1.26q-8.78,0-8.77,4.68a4.81,4.81,0,0,0,2.1,4.14q2.1,1.5,8.34,3.3,11.52,3.36,16.26,7.92t4.74,12.6a16.19,16.19,0,0,1-7,13.92Q887.59,287.32,875.23,287.32Z"/></svg>