<svg id="Layer_1" data-name="Layer 1" xmlns="http://www.w3.org/2000/svg" viewBox="0 0 1000 500"><defs><style>.cls-1{fill:#d53562;}.cls-2{fill:#fff;}</style></defs><rect class="cls-1" x="0.24" width="1000" height="500"/><path class="cls-2" d="M307,194.2H325.4v76.08h41.28V285.4H307Z"/><path class="cls-2" d="M422.84,286.72q-14.64,0-25.86-5.52a41.27,41.27,0,0,1-17.52-16q-6.3-10.44-6.3-24.48a48.75,48.75,0,0,1,6.24-24.84A43.41,43.41,0,0,1,397.34,199q11.7-6.12,27.3-6.12a73.75,73.75,0,0,1,16.44,1.86,60.18,60.18,0,0,1,14.76,5.34l-3,15.84a60.55,60.55,0,0,0-13.86-5,66.43,66.43,0,0,0-15.06-1.74,35.94,35.94,0,0,0-16.62,3.72A27.19,27.19,0,0,0,396,223.66,32,32,0,0,0,391.88,240q0,14.28,8.58,22.44t23.46,8.16a68.64,68.64,0,0,0,16.8-2.28V248.92H422.48V234.28h35.28V280Q442.16,286.72,422.84,286.72Z"/><path class="cls-2" d="M475,194.2h34q14.4,0,22.14,6.06t7.74,17.22a21.93,21.93,0,0,1-3.06,11.4,20.64,20.64,0,0,1-8.34,7.92,20.8,20.8,0,0,1,11.76,8A23.59,23.59,0,0,1,543.56,259q0,12.84-8.34,19.62t-24.06,6.78H475Zm17.4,37.32h13.92q7.44,0,11.16-2.88t3.72-8.88q0-5.52-3.66-8.4t-11-2.88H492.44Zm0,39.6h17.4q7.32,0,11.28-3.42t4-9.66q0-12.48-16.2-12.48H492.44Z"/><path class="cls-2" d="M581.48,209.32H552.2V194.2h76.92v15.12H599.84V285.4H581.48Z"/><path class="cls-2" d="M661.16,252.16H640.52V238.24h20.64V216H676v22.2H696.8v13.92H676v22.2H661.16Z"/></svg>