<svg id="Layer_1" data-name="Layer 1" xmlns="http://www.w3.org/2000/svg" viewBox="0 0 1000 500"><defs><style>.cls-1{fill:#3da3dc;}.cls-2{fill:#fff;}</style></defs><rect class="cls-1" x="0.24" width="1000" height="500"/><path class="cls-2" d="M77.24,194.2H107a40.32,40.32,0,0,1,17.52,3.6,27.79,27.79,0,0,1,11.82,10.32A29,29,0,0,1,140.6,224q0,13.8-9.18,22t-24.54,8.22H95v31.2H77.24ZM95,239.44h9.48q9,0,13.74-4t4.74-11.4q0-7.44-4.68-11.28T104.48,209H95Z"/><path class="cls-2" d="M177.68,287.32a34,34,0,0,1-16.5-4.08,30.87,30.87,0,0,1-11.94-11.52,34,34,0,0,1-.3-33.06,31.3,31.3,0,0,1,11.7-11.82,33,33,0,0,1,17-4.44,34.37,34.37,0,0,1,16.5,4,30.43,30.43,0,0,1,11.94,11.46,34.23,34.23,0,0,1,.3,33.18,31.3,31.3,0,0,1-11.7,11.82A33,33,0,0,1,177.68,287.32Zm0-14.88a15.17,15.17,0,0,0,11.64-4.92q4.56-4.92,4.56-12.72t-4.5-12.6a16.37,16.37,0,0,0-23.4,0q-4.5,4.92-4.5,12.6T166,267.52A15.17,15.17,0,0,0,177.68,272.44Z"/><path class="cls-2" d="M241.76,287.32a52.35,52.35,0,0,1-13.2-1.62,26.23,26.23,0,0,1-9.6-4.26l2-13.56A38.32,38.32,0,0,0,241,274q10.2,0,10.2-5.16a4.73,4.73,0,0,0-2.16-4.2q-2.16-1.44-9-3.36-10.8-3-15.42-7.62T220,241.24a16.42,16.42,0,0,1,6.6-13.8q6.6-5,18.12-5A49.35,49.35,0,0,1,256,223.72a32.36,32.36,0,0,1,9.24,3.48l-1.92,13.2a34,34,0,0,0-8.58-3.42,37.05,37.05,0,0,0-9.3-1.26q-8.76,0-8.76,4.68a4.81,4.81,0,0,0,2.1,4.14q2.1,1.5,8.34,3.3,11.52,3.36,16.26,7.92t4.74,12.6a16.19,16.19,0,0,1-7,13.92Q254.12,287.32,241.76,287.32Z"/><path class="cls-2" d="M307,287.32q-11.4,0-16.92-5.82t-5.52-17.82V238.12H272.72v-13.8H284.6V207.76h16.68v16.56h19.08v13.8H301.28v22.56q0,6.36,2.16,9.12t7.32,2.76a22.48,22.48,0,0,0,10.8-2.64l1.8,13.92a25.88,25.88,0,0,1-7.14,2.52A42.77,42.77,0,0,1,307,287.32Z"/><path class="cls-2" d="M360.08,315.88a64.4,64.4,0,0,1-13-1.38A37.22,37.22,0,0,1,336.56,311l1.8-15.12a34.2,34.2,0,0,0,9.24,3.72A42.25,42.25,0,0,0,358.28,301q10.2,0,15.06-4.62t4.86-14.46V277.6a19.92,19.92,0,0,1-8.28,7.26,27.59,27.59,0,0,1-12,2.46,27,27,0,0,1-14.46-4A27.48,27.48,0,0,1,333.32,272a37.23,37.23,0,0,1-3.72-17,36.09,36.09,0,0,1,3.66-16.26,30.16,30.16,0,0,1,10.38-11.88,26.56,26.56,0,0,1,15.12-4.5A24.76,24.76,0,0,1,370.1,225a20.32,20.32,0,0,1,8.1,7.26l.24-7.92h16v56.76q0,17.16-8.64,26T360.08,315.88Zm2.4-43.44a15.17,15.17,0,0,0,11.64-4.92q4.56-4.92,4.56-12.72t-4.5-12.6a16.37,16.37,0,0,0-23.4,0q-4.5,4.92-4.5,12.6t4.56,12.72A15.17,15.17,0,0,0,362.48,272.44Z"/><path class="cls-2" d="M410.24,224.32h16.08l.12,10.08a19.8,19.8,0,0,1,6.78-8.28,17.25,17.25,0,0,1,9.9-2.88,18.59,18.59,0,0,1,7.08,1.32l-1.44,15.72a20.48,20.48,0,0,0-7.44-1.44q-6.84,0-10.62,4.92t-3.78,13.8V285.4H410.24Z"/><path class="cls-2" d="M483.56,287.32a27,27,0,0,1-14.46-4A27.48,27.48,0,0,1,459,272a37.23,37.23,0,0,1-3.72-17,36.09,36.09,0,0,1,3.66-16.26,30.16,30.16,0,0,1,10.38-11.88,26.56,26.56,0,0,1,15.12-4.5A24.76,24.76,0,0,1,495.74,225a20.32,20.32,0,0,1,8.1,7.26l.24-7.92h16V285.4h-16l-.24-7.8a19.92,19.92,0,0,1-8.28,7.26A27.59,27.59,0,0,1,483.56,287.32Zm4.56-14.88a15.17,15.17,0,0,0,11.64-4.92q4.56-4.92,4.56-12.72t-4.5-12.6a16.37,16.37,0,0,0-23.4,0q-4.5,4.92-4.5,12.6t4.56,12.72A15.17,15.17,0,0,0,488.12,272.44Z"/><path class="cls-2" d="M560.72,287.32a27,27,0,0,1-14.46-4A27.48,27.48,0,0,1,536.12,272a37.23,37.23,0,0,1-3.72-17,36.09,36.09,0,0,1,3.66-16.26,30.16,30.16,0,0,1,10.38-11.88,26.56,26.56,0,0,1,15.12-4.5,25,25,0,0,1,11,2.4,20.17,20.17,0,0,1,8,6.72V188.2H597.2v97.2h-16l-.24-7.8a19.92,19.92,0,0,1-8.28,7.26A27.59,27.59,0,0,1,560.72,287.32Zm4.56-14.88a15.17,15.17,0,0,0,11.64-4.92q4.56-4.92,4.56-12.72T577,242.2a16.37,16.37,0,0,0-23.4,0q-4.5,4.92-4.5,12.6t4.56,12.72A15.17,15.17,0,0,0,565.28,272.44Z"/><path class="cls-2" d="M634.88,287.32q-10.8,0-16.5-6.66t-5.7-19.26V224.32h16.68v34q0,14.28,10.92,14.28,6,0,9.24-4t3.24-11.34V224.32h16.68V285.4H653.36l-.12-7.44a17.46,17.46,0,0,1-7.38,7A24,24,0,0,1,634.88,287.32Z"/><path class="cls-2" d="M710.12,287.32a27,27,0,0,1-14.46-4A27.48,27.48,0,0,1,685.52,272a37.23,37.23,0,0,1-3.72-17,36.09,36.09,0,0,1,3.66-16.26,30.16,30.16,0,0,1,10.38-11.88A26.56,26.56,0,0,1,711,222.4,24.76,24.76,0,0,1,722.3,225a20.32,20.32,0,0,1,8.1,7.26l.24-7.92h16V285.4h-16l-.24-7.8a19.92,19.92,0,0,1-8.28,7.26A27.59,27.59,0,0,1,710.12,287.32Zm4.56-14.88a15.17,15.17,0,0,0,11.64-4.92q4.56-4.92,4.56-12.72t-4.5-12.6a16.37,16.37,0,0,0-23.4,0q-4.5,4.92-4.5,12.6T703,267.52A15.17,15.17,0,0,0,714.68,272.44Z"/><path class="cls-2" d="M789.32,287.32q-11.4,0-16.92-5.82t-5.52-17.82V238.12H755v-13.8h11.88V207.76h16.68v16.56h19.08v13.8H783.56v22.56q0,6.36,2.16,9.12t7.32,2.76a22.48,22.48,0,0,0,10.8-2.64l1.8,13.92a25.88,25.88,0,0,1-7.14,2.52A42.77,42.77,0,0,1,789.32,287.32Z"/><path class="cls-2" d="M847.4,287.32a42.59,42.59,0,0,1-18.66-3.84,28.64,28.64,0,0,1-12.42-11.22,33,33,0,0,1-4.44-17.34,35.46,35.46,0,0,1,3.84-16.62,28.88,28.88,0,0,1,10.92-11.64,31.26,31.26,0,0,1,16.44-4.26,30.56,30.56,0,0,1,15.18,3.66,25.56,25.56,0,0,1,10.2,10.5,33.87,33.87,0,0,1,3.66,16.2,39.68,39.68,0,0,1-.6,7.2H828.44q3.12,13.68,20.76,13.68a50.19,50.19,0,0,0,10.74-1.14,38.45,38.45,0,0,0,9.42-3.3L871,282.28A37.88,37.88,0,0,1,860.48,286,63.06,63.06,0,0,1,847.4,287.32Zm8.76-39q-.6-6.36-4.14-9.78a13,13,0,0,0-9.42-3.42,13.46,13.46,0,0,0-9.48,3.42q-3.72,3.42-4.8,9.78Z"/><path class="cls-2" d="M904.16,287.32A52.35,52.35,0,0,1,891,285.7a26.23,26.23,0,0,1-9.6-4.26l2-13.56a38.32,38.32,0,0,0,20,6.12q10.2,0,10.2-5.16a4.73,4.73,0,0,0-2.16-4.2q-2.16-1.44-9-3.36-10.8-3-15.42-7.62t-4.62-12.42a16.42,16.42,0,0,1,6.6-13.8q6.6-5,18.12-5a49.35,49.35,0,0,1,11.28,1.32,32.36,32.36,0,0,1,9.24,3.48l-1.92,13.2a34,34,0,0,0-8.58-3.42,37.05,37.05,0,0,0-9.3-1.26q-8.76,0-8.76,4.68a4.81,4.81,0,0,0,2.1,4.14q2.1,1.5,8.34,3.3,11.52,3.36,16.26,7.92t4.74,12.6a16.19,16.19,0,0,1-7,13.92Q916.52,287.32,904.16,287.32Z"/></svg>