<svg id="Layer_1" data-name="Layer 1" xmlns="http://www.w3.org/2000/svg" viewBox="0 0 1280 200"><defs><style>.cls-1{fill:#d53562;}.cls-2{fill:#fff;}</style></defs><title>lgbt</title><rect class="cls-1" width="1280" height="200"/><path class="cls-2" d="M445.24,54.2H463.6v76.08h41.28V145.4H445.24Z"/><path class="cls-2" d="M561.76,146.72q-14.64,0-25.86-5.52a41.27,41.27,0,0,1-17.52-16q-6.3-10.44-6.3-24.48a48.75,48.75,0,0,1,6.24-24.84A43.41,43.41,0,0,1,536.26,59q11.7-6.12,27.3-6.12A73.75,73.75,0,0,1,580,54.74a60.18,60.18,0,0,1,14.76,5.34l-3,15.84a60.55,60.55,0,0,0-13.86-5,66.43,66.43,0,0,0-15.06-1.74,35.94,35.94,0,0,0-16.62,3.72,27.19,27.19,0,0,0-11.34,10.74A32,32,0,0,0,530.8,100q0,14.28,8.58,22.44t23.46,8.16a68.64,68.64,0,0,0,16.8-2.28V108.92H561.4V94.28h35.28V140Q581.08,146.72,561.76,146.72Z"/><path class="cls-2" d="M614.68,54.2h34q14.4,0,22.14,6.06t7.74,17.22a21.93,21.93,0,0,1-3.06,11.4,20.64,20.64,0,0,1-8.34,7.92,20.8,20.8,0,0,1,11.76,8A23.59,23.59,0,0,1,683.2,119q0,12.84-8.34,19.62T650.8,145.4H614.68Zm17.4,37.32H646q7.44,0,11.16-2.88t3.72-8.88q0-5.52-3.66-8.4t-11-2.88H632.08Zm0,39.6h17.4q7.32,0,11.28-3.42t4-9.66q0-12.48-16.2-12.48H632.08Z"/><path class="cls-2" d="M721.84,69.32H692.56V54.2h76.92V69.32H740.2V145.4H721.84Z"/><path class="cls-2" d="M802.24,112.16H781.6V98.24h20.64V76h14.88v22.2h20.76v13.92H817.12v22.2H802.24Z"/></svg>