<svg id="Layer_1" data-name="Layer 1" xmlns="http://www.w3.org/2000/svg" viewBox="0 0 1280 200"><defs><style>.cls-1{fill:#dd0613;}.cls-2{fill:#fff;}</style></defs><title>environments</title><rect class="cls-1" width="1280" height="200"/><path class="cls-2" d="M241.84,54.2h60.24V69.56H259.61V91.4h37.56v15.24H259.61V130h44.15V145.4H241.84Z"/><path class="cls-2" d="M319.24,84.32h16.08l.12,7.56a17.84,17.84,0,0,1,7.38-7,23.78,23.78,0,0,1,11.1-2.46q10.8,0,16.5,6.66t5.7,19.26V145.4H359.44v-34q0-14.28-10.92-14.28-6,0-9.3,4t-3.3,11.34V145.4H319.24Z"/><path class="cls-2" d="M385.36,84.32h18.36l14.16,43.56,14.64-43.56h17.4L426.28,145.4H409Z"/><path class="cls-2" d="M467.8,71.84A9.68,9.68,0,0,1,460.66,69a9.38,9.38,0,0,1-2.82-6.9,9.19,9.19,0,0,1,2.82-6.84,10.62,10.62,0,0,1,14.28,0,9.19,9.19,0,0,1,2.82,6.84,9.33,9.33,0,0,1-2.82,7A9.79,9.79,0,0,1,467.8,71.84Zm-8.28,12.48H476.2V145.4H459.52Z"/><path class="cls-2" d="M492.76,84.32h16.08L509,94.4a19.8,19.8,0,0,1,6.78-8.28,17.25,17.25,0,0,1,9.9-2.88,18.59,18.59,0,0,1,7.08,1.32l-1.44,15.72a20.48,20.48,0,0,0-7.44-1.44q-6.84,0-10.62,4.92t-3.78,13.8V145.4H492.76Z"/><path class="cls-2" d="M571.36,147.32a34,34,0,0,1-16.5-4.08,30.87,30.87,0,0,1-11.94-11.52,34,34,0,0,1-.3-33.06,31.3,31.3,0,0,1,11.7-11.82,33,33,0,0,1,17-4.44,34.37,34.37,0,0,1,16.5,4A30.43,30.43,0,0,1,599.8,97.88a34.23,34.23,0,0,1,.3,33.18,31.3,31.3,0,0,1-11.7,11.82A33,33,0,0,1,571.36,147.32Zm0-14.88A15.17,15.17,0,0,0,583,127.52q4.56-4.92,4.56-12.72t-4.5-12.6a16.37,16.37,0,0,0-23.4,0q-4.5,4.92-4.5,12.6t4.56,12.72A15.17,15.17,0,0,0,571.36,132.44Z"/><path class="cls-2" d="M617.32,84.32H633.4l.12,7.56a17.84,17.84,0,0,1,7.38-7A23.78,23.78,0,0,1,652,82.4q10.8,0,16.5,6.66t5.7,19.26V145.4H657.52v-34q0-14.28-10.92-14.28-6,0-9.3,4T634,112.52V145.4H617.32Z"/><path class="cls-2" d="M690.4,84.32h16.08l.12,7.56a18,18,0,0,1,7.5-7.08,24.27,24.27,0,0,1,11.1-2.4q13.32,0,18.72,10.92a19,19,0,0,1,7.86-7.92,23.48,23.48,0,0,1,11.7-3q10.92,0,16.68,6.6t5.76,19.32V145.4H769.24v-34q0-7.32-2.64-10.8t-8.16-3.48a10.43,10.43,0,0,0-8.7,4.08q-3.18,4.08-3.18,11.28V145.4H729.88v-34q0-7.32-2.58-10.8t-8.22-3.48a10.56,10.56,0,0,0-8.82,4.08q-3.18,4.08-3.18,11.16v33H690.4Z"/><path class="cls-2" d="M834.16,147.32a42.59,42.59,0,0,1-18.66-3.84,28.64,28.64,0,0,1-12.42-11.22,33,33,0,0,1-4.44-17.34,35.46,35.46,0,0,1,3.84-16.62A28.88,28.88,0,0,1,813.4,86.66a31.26,31.26,0,0,1,16.44-4.26A30.56,30.56,0,0,1,845,86.06a25.56,25.56,0,0,1,10.2,10.5,33.87,33.87,0,0,1,3.66,16.2,39.68,39.68,0,0,1-.6,7.2H815.2q3.12,13.68,20.76,13.68a50.19,50.19,0,0,0,10.74-1.14,38.45,38.45,0,0,0,9.42-3.3l1.68,13.08A37.88,37.88,0,0,1,847.24,146,63.06,63.06,0,0,1,834.16,147.32Zm8.76-39q-.6-6.36-4.14-9.78a13,13,0,0,0-9.42-3.42,13.46,13.46,0,0,0-9.48,3.42q-3.72,3.42-4.8,9.78Z"/><path class="cls-2" d="M872.8,84.32h16.08l.12,7.56a17.84,17.84,0,0,1,7.38-7,23.78,23.78,0,0,1,11.1-2.46q10.8,0,16.5,6.66t5.7,19.26V145.4H913v-34q0-14.28-10.92-14.28-6,0-9.3,4t-3.3,11.34V145.4H872.8Z"/><path class="cls-2" d="M972.75,147.32q-11.4,0-16.92-5.82t-5.52-17.82V98.12H938.43V84.32h11.88V67.76H967V84.32h19.08v13.8H967v22.56c0,4.24.71,7.28,2.16,9.12s3.87,2.76,7.31,2.76a22.48,22.48,0,0,0,10.8-2.64l1.81,13.92a26.08,26.08,0,0,1-7.15,2.52A42.77,42.77,0,0,1,972.75,147.32Z"/><path class="cls-2" d="M1018.83,147.32a52.35,52.35,0,0,1-13.2-1.62,26.1,26.1,0,0,1-9.59-4.26l2-13.56a38.32,38.32,0,0,0,20,6.12c6.79,0,10.2-1.72,10.2-5.16a4.75,4.75,0,0,0-2.16-4.2q-2.18-1.44-9-3.36-10.8-3-15.42-7.62c-3.09-3.08-4.62-7.22-4.62-12.42a16.41,16.41,0,0,1,6.59-13.8q6.6-5,18.12-5a49.5,49.5,0,0,1,11.29,1.32,32.48,32.48,0,0,1,9.24,3.48l-1.93,13.2a34.09,34.09,0,0,0-8.57-3.42,37.13,37.13,0,0,0-9.31-1.26q-8.76,0-8.76,4.68a4.81,4.81,0,0,0,2.1,4.14q2.1,1.5,8.35,3.3,11.52,3.36,16.26,7.92c3.15,3,4.74,7.24,4.74,12.6a16.2,16.2,0,0,1-7,13.92Q1031.21,147.32,1018.83,147.32Z"/></svg>