<svg id="Layer_1" data-name="Layer 1" xmlns="http://www.w3.org/2000/svg" viewBox="0 0 1280 200"><defs><style>.cls-1{fill:#ef7937;}.cls-2{fill:#fff;}</style></defs><title>activities</title><rect class="cls-1" x="-0.24" y="0.1" width="1280" height="200"/><path class="cls-2" d="M397.12,54.3h19.44l36.24,91.2H433.36l-8.64-24H388l-8.76,24H360.88Zm22.56,53L406.24,70.62l-13.32,36.72Z"/><path class="cls-2" d="M492.88,147.06a38.56,38.56,0,0,1-17.58-3.84,27.9,27.9,0,0,1-11.82-11,33,33,0,0,1-4.2-16.92,33.68,33.68,0,0,1,4.08-16.68,29.22,29.22,0,0,1,11.7-11.52,36.08,36.08,0,0,1,17.7-4.2,48.84,48.84,0,0,1,10.74,1.2,32.71,32.71,0,0,1,8.94,3.24l-2,14.16a37,37,0,0,0-16.08-3.84q-8.4,0-13.38,4.68t-5,12.6q0,8.16,5,12.78t13.8,4.62a43.93,43.93,0,0,0,16.68-3.72l1.68,13.68a32.5,32.5,0,0,1-9.24,3.54A48.42,48.42,0,0,1,492.88,147.06Z"/><path class="cls-2" d="M553.36,147.42q-11.4,0-16.92-5.82t-5.52-17.82V98.22H519V84.42h11.88V67.86H547.6V84.42h19.08v13.8H547.6v22.56q0,6.36,2.16,9.12t7.32,2.76a22.48,22.48,0,0,0,10.8-2.64l1.8,13.92a25.88,25.88,0,0,1-7.14,2.52A42.77,42.77,0,0,1,553.36,147.42Z"/><path class="cls-2" d="M588.88,71.94a9.68,9.68,0,0,1-7.14-2.82,9.38,9.38,0,0,1-2.82-6.9,9.19,9.19,0,0,1,2.82-6.84,10.62,10.62,0,0,1,14.28,0,9.19,9.19,0,0,1,2.82,6.84,9.33,9.33,0,0,1-2.82,7A9.79,9.79,0,0,1,588.88,71.94ZM580.6,84.42h16.68V145.5H580.6Z"/><path class="cls-2" d="M606.88,84.42h18.36L639.4,128,654,84.42h17.4L647.8,145.5H630.52Z"/><path class="cls-2" d="M689.32,71.94a9.68,9.68,0,0,1-7.14-2.82,9.38,9.38,0,0,1-2.82-6.9,9.19,9.19,0,0,1,2.82-6.84,10.62,10.62,0,0,1,14.28,0,9.19,9.19,0,0,1,2.82,6.84,9.33,9.33,0,0,1-2.82,7A9.79,9.79,0,0,1,689.32,71.94ZM681,84.42h16.68V145.5H681Z"/><path class="cls-2" d="M741.16,147.42q-11.4,0-16.92-5.82t-5.52-17.82V98.22H706.84V84.42h11.88V67.86H735.4V84.42h19.08v13.8H735.4v22.56q0,6.36,2.16,9.12t7.32,2.76a22.48,22.48,0,0,0,10.8-2.64l1.8,13.92a25.88,25.88,0,0,1-7.14,2.52A42.77,42.77,0,0,1,741.16,147.42Z"/><path class="cls-2" d="M776.68,71.94a9.68,9.68,0,0,1-7.14-2.82,9.38,9.38,0,0,1-2.82-6.9,9.19,9.19,0,0,1,2.82-6.84,10.62,10.62,0,0,1,14.28,0,9.19,9.19,0,0,1,2.82,6.84,9.33,9.33,0,0,1-2.82,7A9.79,9.79,0,0,1,776.68,71.94ZM768.4,84.42h16.68V145.5H768.4Z"/><path class="cls-2" d="M833.68,147.42A42.53,42.53,0,0,1,815,143.58a28.53,28.53,0,0,1-12.42-11.22A32.9,32.9,0,0,1,798.16,115,35.34,35.34,0,0,1,802,98.4a28.75,28.75,0,0,1,10.92-11.64,31.24,31.24,0,0,1,16.44-4.26,30.59,30.59,0,0,1,15.18,3.66,25.68,25.68,0,0,1,10.2,10.5,34,34,0,0,1,3.66,16.2,39.68,39.68,0,0,1-.6,7.2H814.72q3.1,13.68,20.76,13.68a50.26,50.26,0,0,0,10.74-1.14,38.59,38.59,0,0,0,9.42-3.3l1.68,13.08a38,38,0,0,1-10.56,3.72A63.13,63.13,0,0,1,833.68,147.42Zm8.76-39q-.62-6.36-4.14-9.78a13,13,0,0,0-9.42-3.42,13.45,13.45,0,0,0-9.48,3.42q-3.72,3.42-4.8,9.78Z"/><path class="cls-2" d="M891.16,147.42A52.23,52.23,0,0,1,878,145.8a26.08,26.08,0,0,1-9.6-4.26l2-13.56a38.32,38.32,0,0,0,20,6.12c6.79,0,10.2-1.72,10.2-5.16a4.73,4.73,0,0,0-2.16-4.2q-2.16-1.44-9-3.36-10.8-3-15.42-7.62c-3.09-3.08-4.62-7.22-4.62-12.42a16.39,16.39,0,0,1,6.6-13.8q6.59-5,18.12-5a49.42,49.42,0,0,1,11.28,1.32,32.48,32.48,0,0,1,9.24,3.48l-1.93,13.2a33.93,33.93,0,0,0-8.57-3.42,37.11,37.11,0,0,0-9.3-1.26q-8.76,0-8.76,4.68a4.8,4.8,0,0,0,2.09,4.14q2.1,1.5,8.35,3.3,11.52,3.36,16.26,7.92c3.15,3,4.74,7.24,4.74,12.6a16.22,16.22,0,0,1-7,13.92Q903.52,147.42,891.16,147.42Z"/></svg>