<svg id="Layer_1" data-name="Layer 1" xmlns="http://www.w3.org/2000/svg" viewBox="0 0 1280 200"><defs><style>.cls-1{fill:#3da3dc;}.cls-2{fill:#fff;}</style></defs><title>postgraduates</title><rect class="cls-1" width="1280" height="200"/><path class="cls-2" d="M212.56,54.2h29.76a40.32,40.32,0,0,1,17.52,3.6,27.79,27.79,0,0,1,11.82,10.32A29,29,0,0,1,275.92,84q0,13.8-9.18,22T242.2,114.2H230.32v31.2H212.56Zm17.76,45.24h9.48q9,0,13.74-4t4.74-11.4q0-7.44-4.68-11.28T239.8,69h-9.48Z"/><path class="cls-2" d="M313.72,147.32a34,34,0,0,1-16.5-4.08,30.87,30.87,0,0,1-11.94-11.52,34,34,0,0,1-.3-33.06,31.3,31.3,0,0,1,11.7-11.82,33,33,0,0,1,17-4.44,34.37,34.37,0,0,1,16.5,4,30.43,30.43,0,0,1,11.94,11.46,34.23,34.23,0,0,1,.3,33.18,31.3,31.3,0,0,1-11.7,11.82A33,33,0,0,1,313.72,147.32Zm0-14.88a15.17,15.17,0,0,0,11.64-4.92q4.56-4.92,4.56-12.72t-4.5-12.6a16.37,16.37,0,0,0-23.4,0q-4.5,4.92-4.5,12.6t4.56,12.72A15.17,15.17,0,0,0,313.72,132.44Z"/><path class="cls-2" d="M378.52,147.32a52.35,52.35,0,0,1-13.2-1.62,26.23,26.23,0,0,1-9.6-4.26l2-13.56a38.32,38.32,0,0,0,20,6.12q10.2,0,10.2-5.16a4.73,4.73,0,0,0-2.16-4.2q-2.16-1.44-9-3.36-10.8-3-15.42-7.62t-4.62-12.42a16.42,16.42,0,0,1,6.6-13.8q6.6-5,18.12-5a49.35,49.35,0,0,1,11.28,1.32A32.36,32.36,0,0,1,402,87.2l-1.92,13.2A34,34,0,0,0,391.54,97a37.05,37.05,0,0,0-9.3-1.26q-8.76,0-8.76,4.68a4.81,4.81,0,0,0,2.1,4.14q2.1,1.5,8.34,3.3,11.52,3.36,16.26,7.92t4.74,12.6a16.19,16.19,0,0,1-7,13.92Q390.88,147.32,378.52,147.32Z"/><path class="cls-2" d="M444.52,147.32q-11.4,0-16.92-5.82t-5.52-17.82V98.12H410.2V84.32h11.88V67.76h16.68V84.32h19.08v13.8H438.76v22.56q0,6.36,2.16,9.12t7.32,2.76a22.48,22.48,0,0,0,10.8-2.64l1.8,13.92a25.88,25.88,0,0,1-7.14,2.52A42.77,42.77,0,0,1,444.52,147.32Z"/><path class="cls-2" d="M498.28,175.88a64.4,64.4,0,0,1-13-1.38A37.22,37.22,0,0,1,474.76,171l1.8-15.12a34.2,34.2,0,0,0,9.24,3.72A42.25,42.25,0,0,0,496.48,161q10.2,0,15.06-4.62t4.86-14.46V137.6a19.92,19.92,0,0,1-8.28,7.26,27.59,27.59,0,0,1-12,2.46,27,27,0,0,1-14.46-4A27.48,27.48,0,0,1,471.52,132a37.23,37.23,0,0,1-3.72-17,36.09,36.09,0,0,1,3.66-16.26A30.16,30.16,0,0,1,481.84,86.9,26.56,26.56,0,0,1,497,82.4,24.76,24.76,0,0,1,508.3,85a20.32,20.32,0,0,1,8.1,7.26l.24-7.92h16v56.76q0,17.16-8.64,26T498.28,175.88Zm2.4-43.44a15.17,15.17,0,0,0,11.64-4.92q4.56-4.92,4.56-12.72t-4.5-12.6a16.37,16.37,0,0,0-23.4,0q-4.5,4.92-4.5,12.6T489,127.52A15.17,15.17,0,0,0,500.68,132.44Z"/><path class="cls-2" d="M549.16,84.32h16.08l.12,10.08a19.8,19.8,0,0,1,6.78-8.28,17.25,17.25,0,0,1,9.9-2.88,18.59,18.59,0,0,1,7.08,1.32l-1.44,15.72a20.48,20.48,0,0,0-7.44-1.44q-6.84,0-10.62,4.92t-3.78,13.8V145.4H549.16Z"/><path class="cls-2" d="M623.2,147.32a27,27,0,0,1-14.46-4A27.48,27.48,0,0,1,598.6,132a37.23,37.23,0,0,1-3.72-17,36.09,36.09,0,0,1,3.66-16.26A30.16,30.16,0,0,1,608.92,86.9,26.56,26.56,0,0,1,624,82.4,24.76,24.76,0,0,1,635.38,85a20.32,20.32,0,0,1,8.1,7.26l.24-7.92h16V145.4h-16l-.24-7.8a19.92,19.92,0,0,1-8.28,7.26A27.59,27.59,0,0,1,623.2,147.32Zm4.56-14.88a15.17,15.17,0,0,0,11.64-4.92Q644,122.6,644,114.8t-4.5-12.6a16.37,16.37,0,0,0-23.4,0q-4.5,4.92-4.5,12.6t4.56,12.72A15.17,15.17,0,0,0,627.76,132.44Z"/><path class="cls-2" d="M701.08,147.32a27,27,0,0,1-14.46-4A27.48,27.48,0,0,1,676.48,132a37.23,37.23,0,0,1-3.72-17,36.09,36.09,0,0,1,3.66-16.26A30.16,30.16,0,0,1,686.8,86.9a26.56,26.56,0,0,1,15.12-4.5,25,25,0,0,1,11,2.4,20.17,20.17,0,0,1,8,6.72V48.2h16.68v97.2h-16l-.24-7.8a19.92,19.92,0,0,1-8.28,7.26A27.59,27.59,0,0,1,701.08,147.32Zm4.56-14.88a15.17,15.17,0,0,0,11.64-4.92q4.56-4.92,4.56-12.72t-4.5-12.6a16.37,16.37,0,0,0-23.4,0q-4.5,4.92-4.5,12.6T694,127.52A15.17,15.17,0,0,0,705.64,132.44Z"/><path class="cls-2" d="M776,147.32q-10.8,0-16.5-6.66t-5.7-19.26V84.32h16.68v34q0,14.28,10.92,14.28,6,0,9.24-4t3.24-11.34V84.32h16.68V145.4H794.44l-.12-7.44a17.46,17.46,0,0,1-7.38,7A24,24,0,0,1,776,147.32Z"/><path class="cls-2" d="M851.92,147.32a27,27,0,0,1-14.46-4A27.48,27.48,0,0,1,827.32,132a37.23,37.23,0,0,1-3.72-17,36.09,36.09,0,0,1,3.66-16.26A30.16,30.16,0,0,1,837.64,86.9a26.56,26.56,0,0,1,15.12-4.5A24.76,24.76,0,0,1,864.1,85a20.32,20.32,0,0,1,8.1,7.26l.24-7.92h16V145.4h-16l-.24-7.8a19.92,19.92,0,0,1-8.28,7.26A27.59,27.59,0,0,1,851.92,147.32Zm4.56-14.88a15.17,15.17,0,0,0,11.64-4.92q4.56-4.92,4.56-12.72t-4.5-12.6a16.37,16.37,0,0,0-23.4,0q-4.5,4.92-4.5,12.6t4.56,12.72A15.17,15.17,0,0,0,856.48,132.44Z"/><path class="cls-2" d="M931.84,147.32q-11.4,0-16.92-5.82t-5.52-17.82V98.12H897.52V84.32H909.4V67.76h16.68V84.32h19.08v13.8H926.08v22.56q0,6.36,2.16,9.12t7.32,2.76a22.48,22.48,0,0,0,10.8-2.64l1.8,13.92a25.88,25.88,0,0,1-7.14,2.52A42.77,42.77,0,0,1,931.84,147.32Z"/><path class="cls-2" d="M990.64,147.32A42.59,42.59,0,0,1,972,143.48a28.64,28.64,0,0,1-12.42-11.22,33,33,0,0,1-4.44-17.34A35.46,35.46,0,0,1,959,98.3a28.88,28.88,0,0,1,10.92-11.64,31.26,31.26,0,0,1,16.44-4.26,30.56,30.56,0,0,1,15.18,3.66,25.56,25.56,0,0,1,10.2,10.5,33.87,33.87,0,0,1,3.66,16.2,39.68,39.68,0,0,1-.6,7.2H971.68q3.12,13.68,20.76,13.68a50.19,50.19,0,0,0,10.74-1.14,38.45,38.45,0,0,0,9.42-3.3l1.68,13.08a37.88,37.88,0,0,1-10.56,3.72A63.06,63.06,0,0,1,990.64,147.32Zm8.76-39q-.6-6.36-4.14-9.78a13,13,0,0,0-9.42-3.42,13.46,13.46,0,0,0-9.48,3.42q-3.72,3.42-4.8,9.78Z"/><path class="cls-2" d="M1048.12,147.32a52.35,52.35,0,0,1-13.2-1.62,26.23,26.23,0,0,1-9.6-4.26l2-13.56a38.32,38.32,0,0,0,20,6.12q10.2,0,10.2-5.16a4.73,4.73,0,0,0-2.16-4.2q-2.16-1.44-9-3.36-10.8-3-15.42-7.62t-4.62-12.42a16.42,16.42,0,0,1,6.6-13.8q6.6-5,18.12-5a49.35,49.35,0,0,1,11.28,1.32,32.36,32.36,0,0,1,9.24,3.48l-1.92,13.2a34,34,0,0,0-8.58-3.42,37.05,37.05,0,0,0-9.3-1.26q-8.76,0-8.76,4.68a4.81,4.81,0,0,0,2.1,4.14q2.1,1.5,8.34,3.3,11.52,3.36,16.26,7.92t4.74,12.6a16.19,16.19,0,0,1-7,13.92Q1060.48,147.32,1048.12,147.32Z"/></svg>