<svg id="Layer_1" data-name="Layer 1" xmlns="http://www.w3.org/2000/svg" viewBox="0 0 1000 500"><defs><style>.cls-1{fill:#b56da1;}.cls-2{fill:#fff;}</style></defs><rect class="cls-1" x="0.24" width="1000" height="500"/><path class="cls-2" d="M369.74,209.32H340.46V194.2h76.92v15.12H388.1V285.4H369.74Z"/><path class="cls-2" d="M417.38,224.32h16.08l.12,10.08a19.8,19.8,0,0,1,6.78-8.28,17.25,17.25,0,0,1,9.9-2.88,18.59,18.59,0,0,1,7.08,1.32l-1.44,15.72a20.48,20.48,0,0,0-7.44-1.44q-6.84,0-10.62,4.92t-3.78,13.8V285.4H417.38Z"/><path class="cls-2" d="M490.7,287.32a27,27,0,0,1-14.46-4A27.48,27.48,0,0,1,466.1,272a37.23,37.23,0,0,1-3.72-17A36.09,36.09,0,0,1,466,238.78a30.16,30.16,0,0,1,10.38-11.88,26.56,26.56,0,0,1,15.12-4.5A24.76,24.76,0,0,1,502.88,225a20.32,20.32,0,0,1,8.1,7.26l.24-7.92h16V285.4h-16l-.24-7.8a19.92,19.92,0,0,1-8.28,7.26A27.59,27.59,0,0,1,490.7,287.32Zm4.56-14.88a15.17,15.17,0,0,0,11.64-4.92q4.56-4.92,4.56-12.72T507,242.2a16.37,16.37,0,0,0-23.4,0q-4.5,4.92-4.5,12.6t4.56,12.72A15.17,15.17,0,0,0,495.26,272.44Z"/><path class="cls-2" d="M543,224.32H559.1l.12,7.56a17.84,17.84,0,0,1,7.38-7,23.78,23.78,0,0,1,11.1-2.46q10.8,0,16.5,6.66t5.7,19.26V285.4H583.22v-34q0-14.28-10.92-14.28-6,0-9.3,4t-3.3,11.34V285.4H543Z"/><path class="cls-2" d="M634.22,287.32A52.35,52.35,0,0,1,621,285.7a26.23,26.23,0,0,1-9.6-4.26l2-13.56a38.32,38.32,0,0,0,20,6.12q10.2,0,10.2-5.16a4.73,4.73,0,0,0-2.16-4.2q-2.16-1.44-9-3.36-10.8-3-15.42-7.62t-4.62-12.42a16.42,16.42,0,0,1,6.6-13.8q6.6-5,18.12-5a49.35,49.35,0,0,1,11.28,1.32,32.36,32.36,0,0,1,9.24,3.48l-1.92,13.2a34,34,0,0,0-8.58-3.42,37.05,37.05,0,0,0-9.3-1.26q-8.76,0-8.76,4.68a4.81,4.81,0,0,0,2.1,4.14q2.1,1.5,8.34,3.3,11.52,3.36,16.26,7.92t4.74,12.6a16.19,16.19,0,0,1-7,13.92Q646.58,287.32,634.22,287.32Z"/></svg>